<?xml version="1.0" encoding="utf-8"?>
<!-- Generator: Adobe Illustrator 16.0.0, SVG Export Plug-In . SVG Version: 6.00 Build 0)  -->
<!DOCTYPE svg PUBLIC "-//W3C//DTD SVG 1.1//EN" "http://www.w3.org/Graphics/SVG/1.1/DTD/svg11.dtd">
<svg version="1.1" id="Capa_1" xmlns="http://www.w3.org/2000/svg" xmlns:xlink="http://www.w3.org/1999/xlink" x="0px" y="0px"
	 width="512px" height="512px" viewBox="0 0 512 512" enable-background="new 0 0 512 512" xml:space="preserve">
<g>
	<path fill="#FFFFFF" d="M451,60h-90V30h-62.57C292.238,12.539,275.557,0,256,0c-19.556,0-36.239,12.539-42.43,30H151v30H61v452h390
		V60z M181,60h60V45c0-8.271,6.729-15,15-15c8.271,0,15,6.729,15,15v15h60v30H181V60z M421,482H91V90h60v30h210V90h60V482z"/>
	<path fill="#FFFFFF" d="M151,234.787l-19.394-19.394l-21.212,21.214L151,277.213l70.606-70.606l-21.212-21.214L151,234.787z"/>
	<path fill="#FFFFFF" d="M151,324.787l-19.394-19.395l-21.212,21.215L151,367.213l70.606-70.605l-21.212-21.215L151,324.787z"/>
	<path fill="#FFFFFF" d="M151,414.787l-19.394-19.395l-21.212,21.215L151,457.213l70.606-70.605l-21.212-21.215L151,414.787z"/>
	<path fill="#FFFFFF" d="M241,211h150v30H241V211z"/>
	<path fill="#FFFFFF" d="M241,301h150v30H241V301z"/>
	<path fill="#FFFFFF" d="M241,391h150v30H241V391z"/>
</g>
</svg>
