<?xml version="1.0" encoding="utf-8"?>
<!-- Generator: Adobe Illustrator 16.0.0, SVG Export Plug-In . SVG Version: 6.00 Build 0)  -->
<!DOCTYPE svg PUBLIC "-//W3C//DTD SVG 1.1//EN" "http://www.w3.org/Graphics/SVG/1.1/DTD/svg11.dtd">
<svg version="1.1" id="Capa_1" xmlns="http://www.w3.org/2000/svg" xmlns:xlink="http://www.w3.org/1999/xlink" x="0px" y="0px"
	 width="612px" height="792px" viewBox="0 0 612 792" enable-background="new 0 0 612 792" xml:space="preserve">
<g>
	<path fill="#FFFFFF" d="M611.988,533.648c0-46.271-33.063-85.727-79.277-100.938c7.293-8.8,12.949-19.141,16.616-29.088
		c6.265-3.756,11.179-10.526,13.136-18.403c1.783-7.164,5.729-22.852-2.698-31.409v-7.046c0.349-12.094,1.305-43.532-24.87-57.118
		c-0.681-2.524-0.854-4.509-0.899-4.931l-3.306-33.613l-24.101,22.738c-2.828,2.176-18.864,6.118-33.962,7.642l-6.19,0.956
		c-46.085,7.249-45.344,33.844-44.765,55.246c0.085,2.727,0.175,5.611,0.175,8.845l0.202,6.337
		c-4.64,5.118-7.934,14.501-3.654,31.973c1.957,7.816,6.989,14.558,13.136,17.88c2.84,7.294,8.468,19.331,17.228,30.076
		c-19.545,6.422-36.685,17.2-49.982,31.017c-12.398-7.934-26.158-14.238-40.862-18.809c10.875-12.354,19.097-27.479,24.331-41.851
		c8.148-4.583,14.615-13.31,17.229-23.593c2.306-9.323,7.483-29.987-3.684-40.328v-10.571c0.742-24.87-1.985-59.31-32.916-74.65
		c-1.276-4.307-1.508-7.67-1.536-8.047l-3.942-40.023l-28.739,27.074c-3.424,3.116-25.421,8.642-46.591,10.761l-8.282,1.305
		c-59.524,9.368-58.625,42.313-57.786,72.648c0.101,3.322,0.19,6.771,0.19,10.616l0.292,9.469c-6.09,6.118-10.656,18.01-4.988,41.21
		c2.524,10.166,9.177,18.881,17.155,22.824c3.914,10.122,12.095,28.075,25.32,43.196c-14.704,4.51-28.391,10.847-40.79,18.747
		c-13.342-13.877-30.554-24.635-50.145-31.073c7.281-8.832,12.933-19.141,16.616-29.115c6.321-3.74,11.122-10.414,13.152-18.432
		c1.783-7.164,5.685-22.824-2.699-31.381v-7.046c0.349-12.095,1.292-43.532-24.882-57.118c-0.681-2.524-0.843-4.51-0.883-4.931
		l-3.322-33.614l-24.1,22.739c-2.828,2.176-18.881,6.118-33.962,7.642l-6.179,0.957c-46.097,7.249-45.343,33.844-44.764,55.233
		c0.085,2.727,0.158,5.612,0.158,8.861l0.203,6.321c-4.639,5.105-7.917,14.501-3.638,31.973c1.945,7.816,6.989,14.558,13.124,17.892
		c2.856,7.266,8.484,19.331,17.228,30.044C32.99,448.022,0,487.422,0,533.633v7.248h152.343
		c-3.785,12.095-5.973,24.753-5.973,37.921v7.249h319.247v-7.249c0-13.168-2.176-25.826-5.972-37.921h152.358v-7.236h-0.016V533.648
		z M554.533,526.4v-20.3c0-3.986-3.261-7.248-7.248-7.248s-7.249,3.262-7.249,7.248v20.3h-85.901
		c-3.537-7.873-7.901-15.385-12.949-22.491c-0.782-1.131-1.495-2.29-2.289-3.363c-7.901-10.543-17.415-20.023-28.115-28.318
		c6.742-6.713,14.545-12.572,23.229-17.329l51.461,58.423c1.395,1.552,3.352,2.463,5.438,2.463c2.29-0.117,4.133-0.899,5.527-2.552
		l50.359-58.86c28.176,15.238,47.705,41.575,50.42,72.024L554.533,526.4L554.533,526.4z M450.869,571.569h-62.134v-29.627
		c0-0.36-0.146-0.681-0.219-1.045c-0.522-3.48-3.38-6.207-7.034-6.207c-3.626,0-6.511,2.727-7.034,6.207
		c-0.044,0.36-0.219,0.681-0.219,1.045v29.627H237.681v-29.627c0-0.36-0.158-0.681-0.219-1.045c-0.523-3.48-3.392-6.207-7.034-6.207
		s-6.523,2.727-7.046,6.207c-0.044,0.36-0.203,0.681-0.203,1.045v29.627h-62.122c0.681-10.644,3.014-20.866,6.523-30.668
		c0.871-2.435,1.754-4.87,2.799-7.248h0.219c-0.029-0.118-0.045-0.203-0.073-0.305c1.029-2.321,2.119-4.639,3.306-6.944
		c3.132-6.033,6.832-11.758,10.948-17.24c7.249-9.659,15.936-18.358,25.826-25.943c1.929-1.479,3.801-2.975,5.814-4.393
		c1.973-1.361,4.06-2.581,6.106-3.829c2.609-1.608,5.235-3.176,7.962-4.61l70.111,79.609c1.378,1.552,3.352,2.435,5.438,2.435
		c0.017,0,0.028,0,0.045,0c2.119,0,4.088-0.928,5.466-2.524l68.617-80.172c3.176,1.637,6.235,3.392,9.237,5.263
		c2.059,1.248,4.133,2.464,6.118,3.829c2.014,1.423,3.902,2.913,5.803,4.393c9.891,7.585,18.561,16.284,25.81,25.943
		c4.116,5.526,7.832,11.207,10.964,17.24c1.176,2.261,2.261,4.583,3.307,6.944c-0.028,0.146-0.057,0.231-0.057,0.305h0.219
		c1.029,2.378,1.929,4.813,2.783,7.248C447.838,550.703,450.16,560.926,450.869,571.569z M64.614,498.849
		c-4.003,0-7.249,3.232-7.249,7.248v20.3H14.761c2.67-30.104,21.766-56.219,49.432-71.547l51.506,58.423
		c1.378,1.552,3.351,2.464,5.438,2.464c1.507-0.118,4.117-0.899,5.511-2.553l50.347-58.86c9.035,4.902,17.184,10.903,24.157,17.836
		c-10.701,8.294-20.227,17.791-28.115,28.317c-0.827,1.074-1.523,2.233-2.322,3.363c-5.016,7.074-9.368,14.615-12.933,22.491H71.878
		v-20.299C71.866,502.065,68.633,498.849,64.614,498.849z M73.07,391.428l-3.48-1.045c-2.435-0.742-5.685-4.335-6.844-9.036
		c-2.885-11.831-1.422-17.706,0.912-19.258l3.363-2.233l-0.421-13.545c0-3.177-0.073-6.208-0.158-9.036
		c-0.596-21.243-0.972-35.238,32.523-40.501l5.758-0.928c0.332-0.028,33.524-3.408,41.964-11.341l2.727-2.597l0.393,4.043
		c0.102,1.333,0.567,6.09,2.625,11.471l1.086,2.856l2.8,1.22c14.197,6.146,19.951,19.545,19.185,45.052v14.979l3.699,2.103
		c0.811,0.45,3.148,3.087-0.579,18.039c-1.188,4.7-4.206,8.671-7.699,10.105l-3.059,1.248l-1.045,3.148
		c-3.841,11.325-10.571,23.565-19.619,32.366c-2.378,2.321-4.915,4.363-7.613,6.09c-5.263,3.391-11.094,5.583-17.475,5.77
		c-0.158,0-0.304,0.057-0.45,0.057c-0.203,0-0.393-0.028-0.608-0.028c-0.19,0-0.348,0.028-0.535,0.028
		c-0.535,0-1.001-0.231-1.523-0.26c-6.264-0.393-11.904-2.35-16.807-5.555c-2.711-1.754-5.19-3.829-7.512-6.09
		c-11.341-11.167-17.965-27.13-20.372-33.759L73.07,391.428z M131.942,484.735l-6.337-24.894l7.625-6.568
		c6.568-1.782,12.556-4.931,17.937-9.035c4.149,1.074,8.148,2.407,12.066,3.914L131.942,484.735z M107.348,452.994l7.99,6.859
		l-6.134,24.129l-31.235-35.453c4.149-1.608,8.396-3.088,12.82-4.218C95.662,448.067,101.157,451.098,107.348,452.994z
		 M239.829,390.5l-3.48-1.045c-3.886-1.187-9.003-6.41-10.847-13.849c-3.598-14.704-2.755-25.072,2.261-28.379l3.351-2.22
		l-0.495-16.851c0-3.772-0.101-7.366-0.219-12.034c-0.798-28.638-1.377-49.257,45.591-56.656l7.873-1.248
		c0.434-0.073,44.156-4.639,54.683-14.603l7.31-6.859l1.001,10.425c0.101,1.187,0.624,7.524,3.362,14.72l1.086,2.84l2.784,1.22
		c25.218,10.903,27.884,37.629,27.146,62.527v18.634l3.711,2.119c4.117,2.322,4.279,11.354,0.377,26.872
		c-1.771,7.005-6.381,12.994-11.774,15.21l-3.059,1.248l-1.046,3.148c-5.353,15.879-14.935,33.075-27.84,45.226
		c-2.321,2.176-4.728,4.161-7.28,5.973c-3.335,2.378-6.904,4.335-10.588,5.887c-4.424,1.844-9.035,3.031-13.922,3.452
		c-1.333,0.117-2.564,0.507-3.93,0.507c-1.929,0-3.784-0.231-5.628-0.422c-4.526-0.567-8.789-1.754-12.792-3.452
		c-3.699-1.58-7.147-3.598-10.397-5.915c-2.537-1.844-4.988-3.801-7.249-5.944c-16.155-15.385-25.461-37.803-28.813-47.041
		L239.829,390.5z M321.232,516.291l-9.222-36.251l12.832-10.992l-0.854-0.742c7.9-2.524,15.153-6.567,21.721-11.729
		c7.164,1.782,14.08,4.104,20.766,6.831L321.232,516.291z M286.679,467.974l-1.232,1.074l12.804,10.992l-8.934,35.206
		l-45.181-51.288c7.018-2.885,14.298-5.381,21.896-7.338C272.133,461.463,279.021,465.421,286.679,467.974z M442.839,391.428
		l-3.48-1.045c-2.452-0.77-5.697-4.335-6.86-9.036c-2.885-11.831-1.422-17.706,0.899-19.258l3.363-2.233l-0.421-13.545
		c0-3.177-0.073-6.208-0.158-9.064c-0.58-21.215-0.944-35.206,32.523-40.473l5.77-0.928c0.304-0.028,33.496-3.408,41.936-11.341
		l2.728-2.597l0.393,4.043c0.102,1.333,0.567,6.062,2.609,11.471l1.086,2.856l2.812,1.22c14.198,6.146,19.951,19.545,19.17,45.052
		v14.979l3.711,2.103c0.811,0.45,3.16,3.087-0.596,18.039c-1.188,4.7-4.189,8.671-7.687,10.105l-3.059,1.248l-1.046,3.148
		c-3.841,11.325-10.57,23.565-19.618,32.366c-2.379,2.321-4.931,4.363-7.613,6.09c-5.264,3.391-11.106,5.583-17.476,5.77
		l0.085,0.085c-0.174,0-0.332-0.028-0.506-0.028c-0.231,0-0.405-0.028-0.624-0.028c-0.19,0-0.349,0.028-0.535,0.028
		c-0.535,0-1.001-0.231-1.523-0.26c-6.264-0.393-11.892-2.35-16.818-5.555c-2.699-1.754-5.179-3.829-7.496-6.09
		c-11.354-11.167-17.966-27.13-20.372-33.759L442.839,391.428z M501.679,484.735l-6.337-24.897l7.625-6.568
		c6.568-1.811,12.544-4.931,17.953-9.035c4.117,1.073,8.148,2.406,12.034,3.914L501.679,484.735z M477.116,452.994l7.975,6.859
		l-6.135,24.129l-31.235-35.453c4.149-1.608,8.396-3.088,12.82-4.218C465.398,448.067,470.926,451.126,477.116,452.994z"/>
</g>
</svg>
