<?xml version="1.0" encoding="utf-8"?>
<!-- Generator: Adobe Illustrator 16.0.0, SVG Export Plug-In . SVG Version: 6.00 Build 0)  -->
<!DOCTYPE svg PUBLIC "-//W3C//DTD SVG 1.1//EN" "http://www.w3.org/Graphics/SVG/1.1/DTD/svg11.dtd">
<svg version="1.1" id="Capa_1" xmlns="http://www.w3.org/2000/svg" xmlns:xlink="http://www.w3.org/1999/xlink" x="0px" y="0px"
	 width="612px" height="792px" viewBox="0 0 612 792" enable-background="new 0 0 612 792" xml:space="preserve">
<g>
	<g>
		<path fill="#FFFFFF" d="M420.75,90h-229.5C85.642,90,0,175.642,0,281.25v229.5C0,616.358,85.642,702,191.25,702h229.5
			C526.358,702,612,616.358,612,510.75v-229.5C612,175.642,526.358,90,420.75,90z M554.625,510.75
			c0,73.822-60.053,133.875-133.875,133.875h-229.5c-73.822,0-133.875-60.053-133.875-133.875v-229.5
			c0-73.822,60.053-133.875,133.875-133.875h229.5c73.822,0,133.875,60.053,133.875,133.875V510.75z"/>
	</g>
</g>
<g>
	<g>
		<path fill="#FFFFFF" d="M306,243c-84.494,0-153,68.506-153,153s68.506,153,153,153s153-68.506,153-153S390.494,243,306,243z
			 M306,491.625c-52.708,0-95.625-42.917-95.625-95.625c0-52.747,42.917-95.625,95.625-95.625c52.709,0,95.625,42.878,95.625,95.625
			C401.625,448.708,358.709,491.625,306,491.625z"/>
	</g>
</g>
<g>
	<g>
		<circle fill="#FFFFFF" cx="470.475" cy="231.525" r="20.387"/>
	</g>
</g>
</svg>
