<?xml version="1.0" encoding="utf-8"?>
<!-- Generator: Adobe Illustrator 16.0.0, SVG Export Plug-In . SVG Version: 6.00 Build 0)  -->
<!DOCTYPE svg PUBLIC "-//W3C//DTD SVG 1.1//EN" "http://www.w3.org/Graphics/SVG/1.1/DTD/svg11.dtd">
<svg version="1.1" id="Layer_1" xmlns="http://www.w3.org/2000/svg" xmlns:xlink="http://www.w3.org/1999/xlink" x="0px" y="0px"
	 width="612px" height="792px" viewBox="0 0 612 792" enable-background="new 0 0 612 792" xml:space="preserve">
<g>
	<g>
		<path fill="#FFFFFF" d="M305.995,90C137.001,90,0.002,227.004,0.002,395.997c0,168.989,137,306.003,305.993,306.003
			c168.993,0,306.003-137.014,306.003-306.003C611.998,227.004,474.988,90,305.995,90z M296.403,294.326h228.205
			c1.557,0,3.064,0.186,4.539,0.455l-127.803,73.476l-108.048-73.618C294.324,294.512,295.334,294.326,296.403,294.326z
			 M123.568,468.036v-31.738h101.84l-1.243,10.296l-0.229,1.899v1.909c0,6.159,1.022,12.079,2.852,17.634H123.568z M229.08,405.881
			H89.175v-31.747h143.75L229.08,405.881z M239.847,316.887l-1.969,16.249H58.314v-31.747h184.385
			C241.069,306.299,240.063,311.491,239.847,316.887z M508.73,475.262H280.529c-6.83,0-13.011-2.756-17.503-7.218c0,0,0,0,0-0.006
			c-1.1-1.096-2.095-2.301-2.979-3.586c-0.02-0.033-0.059-0.063-0.08-0.096c-0.82-1.212-1.503-2.514-2.105-3.858
			c-0.059-0.133-0.149-0.249-0.212-0.386c-0.541-1.269-0.92-2.619-1.242-3.99c-0.059-0.238-0.169-0.454-0.216-0.693
			c-0.333-1.63-0.508-3.307-0.508-5.026l8.456-69.889l0.773-6.385l6.646-54.958c0-1.571,0.189-3.091,0.471-4.576
			c0.033-0.159,0.016-0.332,0.053-0.491c0.021,0.01,0.037,0.026,0.059,0.042c0.714-3.39,2.065-6.54,3.995-9.276v11.996
			l117.792,79.831c0.159,0.109,0.333,0.168,0.498,0.265c0.169,0.106,0.345,0.189,0.524,0.286c0.93,0.475,1.883,0.855,2.858,1.111
			c0.105,0.026,0.201,0.043,0.306,0.063c1.069,0.254,2.154,0.408,3.228,0.408h0.01c0.011,0,0.017,0,0.021,0
			c1.075,0,2.158-0.152,3.228-0.408c0.105-0.02,0.202-0.036,0.306-0.063c0.974-0.253,1.926-0.635,2.858-1.111
			c0.175-0.097,0.349-0.18,0.524-0.286c0.163-0.097,0.332-0.153,0.497-0.265l140.338-81.022c0.163,1.152,0.349,2.301,0.349,3.502
			L533.6,450.408C533.586,464.14,522.459,475.262,508.73,475.262z"/>
	</g>
</g>
</svg>
