<?xml version="1.0" encoding="utf-8"?>
<!-- Generator: Adobe Illustrator 16.0.0, SVG Export Plug-In . SVG Version: 6.00 Build 0)  -->
<!DOCTYPE svg PUBLIC "-//W3C//DTD SVG 1.1//EN" "http://www.w3.org/Graphics/SVG/1.1/DTD/svg11.dtd">
<svg version="1.1" id="Capa_1" xmlns="http://www.w3.org/2000/svg" xmlns:xlink="http://www.w3.org/1999/xlink" x="0px" y="0px"
	 width="612px" height="792px" viewBox="0 0 612 792" enable-background="new 0 0 612 792" xml:space="preserve">
<g>
	<g>
		<path fill="#FFFFFF" d="M477.733,458.887l42.647-33.612l-0.241-54.333l23.733-48.912l-23.613-48.912l0.241-54.333l-42.647-33.732
			l-23.371-49.032l-53.008-11.927L359.068,90l-53.008,12.409L253.173,90l-42.406,34.094l-53.008,11.927l-23.372,49.032
			l-42.768,33.732l0.241,54.333L68.127,322.03l23.733,48.912l-0.241,54.333l42.647,33.732l17.107,36.021L82.102,643.571
			l82.042-12.529L207.273,702l71.801-154.084l26.865-6.265l21.203,4.939L399.667,702l43.13-70.958l82.041,12.529l-66.862-143.362
			L477.733,458.887z M204.984,660.196l-30.841-50.719l-58.55,8.914l50.599-108.666l44.575,10l42.406,34.094L204.984,660.196z
			 M306.061,521.291l-48.069,11.325l-38.431-30.962l-48.189-10.843l-21.203-44.574l-38.792-30.601l0.241-49.394l-21.564-44.334
			l21.564-44.454l-0.241-49.394l38.792-30.6l21.203-44.575l48.189-10.843l38.431-30.961l48.069,11.204l48.068-11.204l38.431,30.961
			l48.188,10.843l21.203,44.575l38.793,30.6l-0.241,49.394l21.564,44.334l-21.564,44.334l0.241,49.394l-38.793,30.6l-21.203,44.575
			l-48.188,10.843l-38.431,30.961L306.061,521.291z M491.347,618.513l-58.55-8.915l-30.841,50.599l-50.357-107.943l7.349,1.687
			l42.406-34.094l39.877-8.915L491.347,618.513z"/>
	</g>
</g>
<g>
	<g>
		<path fill="#FFFFFF" d="M306.061,151.32c-94.089,0-170.71,76.621-170.71,170.709c0,94.089,76.621,170.709,170.71,170.709
			c94.089-0.12,170.709-76.62,170.709-170.709C476.77,227.941,400.149,151.32,306.061,151.32z M306.061,472.981
			c-83.247,0-150.952-67.705-150.952-150.952s67.706-150.952,150.952-150.952c83.246,0,150.951,67.705,150.951,150.952
			S389.307,472.981,306.061,472.981z"/>
	</g>
</g>
<g>
	<g>
		<path fill="#FFFFFF" d="M434.363,280.347h-98.064l-30.238-93.246l-30.239,93.246h-98.065l79.271,57.585l-30.238,93.246
			l79.271-57.585l79.271,57.585l-30.238-93.246L434.363,280.347z M306.061,349.136l-41.804,30.359l15.902-49.152l-41.804-30.359
			h51.563l15.902-49.153l15.902,49.153h51.563l-41.805,30.359l16.385,49.152L306.061,349.136z"/>
	</g>
</g>
</svg>
