<?xml version="1.0" encoding="utf-8"?>
<!-- Generator: Adobe Illustrator 16.0.0, SVG Export Plug-In . SVG Version: 6.00 Build 0)  -->
<!DOCTYPE svg PUBLIC "-//W3C//DTD SVG 1.1//EN" "http://www.w3.org/Graphics/SVG/1.1/DTD/svg11.dtd">
<svg version="1.1" id="Layer_1" xmlns="http://www.w3.org/2000/svg" xmlns:xlink="http://www.w3.org/1999/xlink" x="0px" y="0px"
	 width="612px" height="792px" viewBox="0 0 612 792" enable-background="new 0 0 612 792" xml:space="preserve">
<g>
	<g>
		<g>
			<path fill="#FFFFFF" d="M305.989,90.002C137,90.002,0,227.007,0,396.001C0,564.991,137,702,305.989,702
				C474.989,702,612,564.989,612,396.001C612,227.007,474.989,90.002,305.989,90.002z M430.339,532.957v21.163
				c0,11.688-9.476,21.163-21.163,21.163h-21.163H271.208h-73.674c-23.375,0-42.329-18.952-42.329-42.329V266.65
				c0-23.375,18.952-42.329,42.329-42.329h73.671h116.805h21.163c11.688,0,21.163,9.476,21.163,21.164v21.165h0.002V532.957
				L430.339,532.957z M472.666,266.65v266.307v21.163c0,11.688-9.477,21.163-21.164,21.163h-5.724
				c3.619-6.232,5.724-13.45,5.724-21.163v-21.163V266.65v-21.161c0-7.713-2.104-14.931-5.724-21.163h5.724
				c11.688,0,21.164,9.476,21.164,21.163V266.65z"/>
			<path fill="#FFFFFF" d="M358.212,427.66c0,0-7.975-9.572-16.804-2.968c-6.581,4.92-18.407,15.863-21.249,18.52
				c0,0-19.769-10.539-31.466-20.164c-17.328-14.249-28.916-31.841-34.989-41.847l-4.535-8.55
				c1.581-1.704,13.688-14.666,18.925-21.704c6.593-8.825-2.962-16.799-2.962-16.799s-26.894-26.894-33.016-32.229
				c-6.126-5.349-13.181-2.381-13.181-2.381c-12.883,8.327-26.233,15.562-27.026,50.36c-0.026,32.577,24.703,66.174,51.439,92.185
				c26.788,29.381,63.571,58.82,99.121,58.788c34.793-0.783,42.021-14.138,50.344-27.021c0,0,2.979-7.048-2.364-13.174
				C385.105,454.54,358.212,427.66,358.212,427.66z"/>
		</g>
	</g>
</g>
</svg>
