<?xml version="1.0" encoding="utf-8"?>
<!-- Generator: Adobe Illustrator 16.0.0, SVG Export Plug-In . SVG Version: 6.00 Build 0)  -->
<!DOCTYPE svg PUBLIC "-//W3C//DTD SVG 1.1//EN" "http://www.w3.org/Graphics/SVG/1.1/DTD/svg11.dtd">
<svg version="1.1" id="Layer_1" xmlns="http://www.w3.org/2000/svg" xmlns:xlink="http://www.w3.org/1999/xlink" x="0px" y="0px"
	 width="612px" height="792px" viewBox="0 0 612 792" enable-background="new 0 0 612 792" xml:space="preserve">
<g>
	<g>
		<g>
			<circle fill="#FFFFFF" cx="306.895" cy="315.569" r="49.264"/>
			<path fill="#FFFFFF" d="M305.995,90C137.001,90,0.002,227.004,0.002,395.997c0,168.989,137,306.003,305.993,306.003
				c168.993,0,306.003-137.014,306.003-306.003C611.998,227.004,474.988,90,305.995,90z M305.36,230.104
				c0.217,0,0.429-0.01,0.641-0.021c0.212,0.01,0.422,0.021,0.641,0.021c51.56,0.814,93.502,43.428,93.502,95
				c0,63.053-67.369,126.9-94.143,149.777c-1.789-1.53-3.772-3.254-5.894-5.144c-0.037-0.032-0.069-0.059-0.1-0.09
				c-29.63-26.328-88.147-85.772-88.147-144.543C211.858,273.532,253.805,230.92,305.36,230.104z M307.329,563.795
				c-56.433,0-113.566-16.189-113.566-47.12c0-21.708,28.132-36.144,64.401-42.831c7.016,7.053,13.656,13.271,19.482,18.461
				c-39.507,4.412-62.719,16.92-62.719,24.363c0,9.147,35.078,25.957,92.401,25.957c57.322,0,92.407-16.81,92.407-25.957
				c0-7.597-24.191-20.418-65.132-24.586c5.877-5.249,12.57-11.524,19.639-18.65c37.359,6.504,66.656,21.084,66.656,43.243
				C420.899,547.605,363.767,563.795,307.329,563.795z"/>
		</g>
	</g>
</g>
</svg>
