<?xml version="1.0" encoding="utf-8"?>
<!-- Generator: Adobe Illustrator 16.0.0, SVG Export Plug-In . SVG Version: 6.00 Build 0)  -->
<!DOCTYPE svg PUBLIC "-//W3C//DTD SVG 1.1//EN" "http://www.w3.org/Graphics/SVG/1.1/DTD/svg11.dtd">
<svg version="1.1" id="light" xmlns="http://www.w3.org/2000/svg" xmlns:xlink="http://www.w3.org/1999/xlink" x="0px" y="0px"
	 width="512px" height="512px" viewBox="0 0 512 512" enable-background="new 0 0 512 512" xml:space="preserve">
<g>
	<path fill="#FFFFFF" d="M458.667,512H53.333C23.915,512,0,488.064,0,458.667V53.333C0,23.936,23.915,0,53.333,0h405.333
		C488.085,0,512,23.936,512,53.333v405.333C512,488.064,488.085,512,458.667,512z M53.333,21.333c-17.643,0-32,14.357-32,32v405.333
		c0,17.643,14.357,32,32,32h405.333c17.643,0,32-14.357,32-32V53.333c0-17.643-14.357-32-32-32H53.333z"/>
</g>
<g>
	<path fill="#FFFFFF" d="M352,170.667H160c-5.888,0-10.667-4.778-10.667-10.667s4.778-10.667,10.667-10.667h192
		c5.888,0,10.667,4.778,10.667,10.667S357.888,170.667,352,170.667z"/>
</g>
<g>
	<path fill="#FFFFFF" d="M352,266.666H160c-5.888,0-10.667-4.777-10.667-10.666c0-5.888,4.778-10.667,10.667-10.667h192
		c5.888,0,10.667,4.778,10.667,10.667C362.667,261.889,357.888,266.666,352,266.666z"/>
</g>
<g>
	<path fill="#FFFFFF" d="M352,362.666H160c-5.888,0-10.667-4.777-10.667-10.666s4.778-10.666,10.667-10.666h192
		c5.888,0,10.667,4.777,10.667,10.666S357.888,362.666,352,362.666z"/>
</g>
</svg>
